<?xml version="1.0" encoding="utf-8"?>
<!-- Svg Vector Icons : http://www.onlinewebfonts.com/icon -->
<!DOCTYPE svg PUBLIC "-//W3C//DTD SVG 1.1//EN" "http://www.w3.org/Graphics/SVG/1.1/DTD/svg11.dtd">
<svg version="1.1" xmlns="http://www.w3.org/2000/svg" xmlns:xlink="http://www.w3.org/1999/xlink" x="0px" y="0px" viewBox="0 0 1000 1000" enable-background="new 0 0 1000 1000" xml:space="preserve">
<metadata> Svg Vector Icons : http://www.onlinewebfonts.com/icon </metadata>
<g><g><path d="M706.9,357.5c0,0-42.9-44.5-206.9-44.5c-164,0-206.9,44.5-206.9,44.5v327.1c-22,4.6-38.5,9.5-50.6,13.8c-17.7,6.5-29.5,23.3-29.5,42.2V925c0,21.1,14.7,39.4,35.3,43.8c47.9,10.4,140.4,26.6,251.7,26.6c111.4,0,203.8-16.2,251.7-26.6c20.7-4.5,35.3-22.7,35.3-43.8V741.5c0-18.8-11.7-35.6-29.3-42.1c-12.4-4.6-29.1-9.7-50.8-14.6L706.9,357.5L706.9,357.5z M372.3,381.9c17.7,0,32.1,14.4,32.1,32.2c0,17.8-14.4,32.1-32.1,32.1c-17.7,0-32.1-14.3-32.1-32.1C340.2,396.4,354.6,381.9,372.3,381.9z M337.5,496.2c0-20.4,15.3-36.9,35.6-36.9c20.3,0,35.6,16.5,35.6,36.9v190.4c0,20.4-15.2,36.8-35.6,36.8c-20.3,0-35.6-16.4-35.6-36.8V496.2z"/><path d="M500,262.5c20.3,0,37.9-16.5,37.9-36.9V41.5c0-20.4-17.5-36.9-37.9-36.9s-37.8,16.5-37.8,36.9v184.1C462.2,246,479.7,262.5,500,262.5z"/><path d="M345.8,238.7c3.6,3.6,8.3,5.4,13,5.4c4.7,0,9.4-1.8,13-5.4c7.2-7.2,7.2-18.9,0-26L241.6,82.5c-7.2-7.2-18.8-7.2-26,0c-7.2,7.2-7.2,18.9,0,26L345.8,238.7z"/><path d="M641.2,244.1c4.7,0,9.4-1.8,13-5.4l130.2-130.3c7.2-7.1,7.2-18.8,0-26c-7.2-7.2-18.8-7.2-26,0L628.2,212.7c-7.2,7.1-7.2,18.8,0,26C631.8,242.3,636.5,244.1,641.2,244.1z"/><path d="M989.5,285.5c-3.3-20-22-33.7-42.3-30.3L765.5,285c-20.1,3.3-33.7,22.3-30.4,42.3c3,18.1,18.6,30.8,36.3,30.8c2,0,3.9-0.2,6-0.5l181.7-29.8C979.2,324.6,992.8,305.6,989.5,285.5z"/><path d="M228.6,358.2c17.7,0,33.3-12.8,36.3-30.8c3.3-20-10.3-39-30.4-42.3L52.8,255.2c-20.4-3.6-39,10.3-42.3,30.3c-3.3,20.1,10.3,39.1,30.3,42.3l181.7,29.8C224.6,358,226.6,358.2,228.6,358.2z"/></g></g>
</svg>